<svg width="18" height="15" viewBox="0 0 18 15" fill="none" xmlns="http://www.w3.org/2000/svg">
<g id="Olhos">
<rect width="18" height="15" fill="white"/>
<path id="Vector" d="M15.8961 8.87274C15.9471 9.00721 15.9802 9.15561 15.9935 9.30947C16.0067 9.46333 15.9998 9.61964 15.9732 9.76947C15.9466 9.91931 15.9008 10.0597 15.8384 10.1827C15.7761 10.3057 15.6983 10.4089 15.6096 10.4863C15.521 10.5637 15.4231 10.6139 15.3217 10.634C15.2202 10.6541 15.1171 10.6436 15.0183 10.6033C14.9195 10.563 14.8269 10.4935 14.7458 10.3989C14.6647 10.3043 14.5967 10.1864 14.5456 10.052L13.4531 7.15305C12.8434 7.73464 12.1862 8.19254 11.4981 8.51505L11.8408 11.6242C11.8746 11.9327 11.8261 12.2488 11.7062 12.5031C11.5863 12.7574 11.4046 12.929 11.2013 12.9803C11.1585 12.9918 11.1151 12.9974 11.0717 12.997C10.888 12.9968 10.7104 12.8979 10.5702 12.7181C10.43 12.5382 10.3363 12.2889 10.3057 12.0144L9.97201 8.98771C9.32469 9.09646 8.67143 9.09646 8.02411 8.98771L7.69362 12.0173C7.66298 12.2922 7.5691 12.5418 7.42864 12.7217C7.28819 12.9016 7.11024 13.0002 6.92639 13C6.88294 13.0003 6.83957 12.9947 6.79679 12.9833C6.69607 12.9576 6.59967 12.902 6.51312 12.8198C6.42656 12.7376 6.35153 12.6303 6.29232 12.5041C6.23311 12.3779 6.19087 12.2352 6.16802 12.0842C6.14517 11.9333 6.14216 11.777 6.15915 11.6242L6.50194 8.50718C5.81382 8.18468 5.15655 7.72678 4.54692 7.14519L3.45438 10.052C3.40332 10.1864 3.3353 10.3043 3.25419 10.3989C3.17309 10.4935 3.08049 10.563 2.98169 10.6033C2.88288 10.6436 2.77981 10.6541 2.67835 10.634C2.57689 10.6139 2.47903 10.5637 2.39036 10.4863C2.30169 10.4089 2.22394 10.3057 2.16156 10.1827C2.09918 10.0597 2.05338 9.91931 2.02678 9.76947C2.00019 9.61964 1.99331 9.46333 2.00655 9.30947C2.01979 9.15561 2.05288 9.00721 2.10394 8.87274L3.29756 5.71343C2.893 5.1594 2.51794 4.55777 2.17587 3.91415C2.05511 3.6699 2.00151 3.36415 2.02636 3.06121C2.05121 2.75827 2.15256 2.48174 2.3091 2.2898C2.46564 2.09786 2.66516 2.00545 2.8657 2.03202C3.06625 2.05859 3.25218 2.20207 3.3844 2.43227C4.42379 4.38387 6.24209 6.71085 9 6.71085C11.7579 6.71085 13.5762 4.38387 14.6156 2.43227C14.7457 2.1913 14.9333 2.03814 15.1376 2.00622C15.3419 1.97429 15.5462 2.06619 15.7059 2.26187C15.8657 2.45754 15.9679 2.7411 15.9903 3.05065C16.0127 3.3602 15.9534 3.67062 15.8254 3.91415C15.4829 4.55784 15.1074 5.15948 14.7024 5.71343L15.8961 8.87274Z" fill="#A6A0A0"/>
</g>
</svg>
