<svg width="20" height="20" viewBox="0 0 20 20" fill="none" xmlns="http://www.w3.org/2000/svg">
<g id="conf">
<path id="Vector" d="M8.49658 15.182C8.49658 16.0509 9.22227 16.7618 10.1092 16.7618C10.9962 16.7618 11.7219 16.0509 11.7219 15.182C11.7219 14.3131 10.9962 13.6022 10.1092 13.6022C9.22227 13.6022 8.49658 14.3131 8.49658 15.182ZM8.49658 4.12338C8.49658 4.99227 9.22227 5.70318 10.1092 5.70318C10.9962 5.70318 11.7219 4.99227 11.7219 4.12338C11.7219 3.25449 10.9962 2.54358 10.1092 2.54358C9.22227 2.54358 8.49658 3.25449 8.49658 4.12338ZM8.49658 9.65268C8.49658 10.5216 9.22227 11.2325 10.1092 11.2325C10.9962 11.2325 11.7219 10.5216 11.7219 9.65268C11.7219 8.78379 10.9962 8.07288 10.1092 8.07288C9.22227 8.07288 8.49658 8.78379 8.49658 9.65268Z" fill="#FFAC1C"/>
</g>
</svg>
