<svg width="14" height="9" viewBox="0 0 14 9" fill="none" xmlns="http://www.w3.org/2000/svg">
<path id="Vector" d="M7 2.69997C6.49368 2.69997 6.00809 2.88961 5.65007 3.22718C5.29204 3.56474 5.09091 4.02258 5.09091 4.49997C5.09091 4.97736 5.29204 5.4352 5.65007 5.77276C6.00809 6.11033 6.49368 6.29997 7 6.29997C7.50632 6.29997 7.99191 6.11033 8.34993 5.77276C8.70795 5.4352 8.90909 4.97736 8.90909 4.49997C8.90909 4.02258 8.70795 3.56474 8.34993 3.22718C7.99191 2.88961 7.50632 2.69997 7 2.69997ZM7 7.49997C6.15613 7.49997 5.34682 7.1839 4.75011 6.62129C4.15341 6.05868 3.81818 5.29562 3.81818 4.49997C3.81818 3.70432 4.15341 2.94126 4.75011 2.37865C5.34682 1.81604 6.15613 1.49997 7 1.49997C7.84387 1.49997 8.65318 1.81604 9.24988 2.37865C9.84659 2.94126 10.1818 3.70432 10.1818 4.49997C10.1818 5.29562 9.84659 6.05868 9.24988 6.62129C8.65318 7.1839 7.84387 7.49997 7 7.49997ZM7 -3.05176e-05C3.81818 -3.05176e-05 1.10091 1.86597 0 4.49997C1.10091 7.13397 3.81818 8.99997 7 8.99997C10.1818 8.99997 12.8991 7.13397 14 4.49997C12.8991 1.86597 10.1818 -3.05176e-05 7 -3.05176e-05Z" fill="#A6A0A0"/>
</svg>
