<svg width="24" height="24" viewBox="0 0 24 24" fill="none" xmlns="http://www.w3.org/2000/svg">
<g id="ic:baseline-qrcode">
<path id="Vector" d="M1 1H11V11H1V1ZM3 3V9H9V3H3Z" fill="#FFAC1C"/>
<path id="Vector_2" fill-rule="evenodd" clip-rule="evenodd" d="M5 5H7V7H5V5Z" fill="#FFAC1C"/>
<path id="Vector_3" d="M13 1H23V11H13V1ZM15 3V9H21V3H15Z" fill="#FFAC1C"/>
<path id="Vector_4" fill-rule="evenodd" clip-rule="evenodd" d="M17 5H19V7H17V5Z" fill="#FFAC1C"/>
<path id="Vector_5" d="M1 13H11V23H1V13ZM3 15V21H9V15H3Z" fill="#FFAC1C"/>
<path id="Vector_6" fill-rule="evenodd" clip-rule="evenodd" d="M5 17H7V19H5V17Z" fill="#FFAC1C"/>
<path id="Vector_7" d="M23 19H19V23H13V13V19H15V21H17V15H15V13H14H17V15H19V17H21V13H23V19ZM23 21V23H21V21H23Z" fill="#FFAC1C"/>
</g>
</svg>
