<svg width="14" height="14" viewBox="0 0 14 14" fill="none" xmlns="http://www.w3.org/2000/svg">
<path id="Vector" d="M12.2207 12.6364L9.97659 10.3091M5.73764 10.8263C6.3598 10.8263 6.97586 10.6992 7.55066 10.4523C8.12546 10.2054 8.64773 9.84347 9.08766 9.38724C9.52759 8.93101 9.87657 8.38939 10.1147 7.79331C10.3527 7.19722 10.4753 6.55833 10.4753 5.91313C10.4753 5.26793 10.3527 4.62905 10.1147 4.03296C9.87657 3.43687 9.52759 2.89525 9.08766 2.43902C8.64773 1.9828 8.12546 1.6209 7.55066 1.37399C6.97586 1.12708 6.3598 1 5.73764 1C4.48114 1 3.2761 1.51763 2.38762 2.43902C1.49914 3.36041 1 4.61009 1 5.91313C1 7.21617 1.49914 8.46585 2.38762 9.38724C3.2761 10.3086 4.48114 10.8263 5.73764 10.8263Z" stroke="white" stroke-width="2" stroke-linecap="round" stroke-linejoin="round"/>
</svg>
